<svg xmlns="http://www.w3.org/2000/svg" viewBox="0 0 32 32" width="32" height="32">
  <defs>
    <linearGradient id="musicGradient" x1="0%" y1="0%" x2="100%" y2="100%">
      <stop offset="0%" style="stop-color:#4f46e5;stop-opacity:1" />
      <stop offset="100%" style="stop-color:#7c3aed;stop-opacity:1" />
    </linearGradient>
  </defs>
  
  <!-- Background circle -->
  <circle cx="16" cy="16" r="15" fill="url(#musicGradient)" stroke="#1f2937" stroke-width="1"/>
  
  <!-- Musical note stem -->
  <rect x="12" y="8" width="1.5" height="12" fill="#ffffff"/>
  
  <!-- Musical note head -->
  <ellipse cx="11.2" cy="19" rx="2" ry="1.5" fill="#ffffff"/>
  
  <!-- Eighth note flag -->
  <path d="M13.5 8 Q18 6 18 10 Q18 8 13.5 10" fill="#ffffff"/>
  
  <!-- Poetry lines (representing text/lyrics) -->
  <line x1="20" y1="12" x2="26" y2="12" stroke="#ffffff" stroke-width="1" opacity="0.8"/>
  <line x1="20" y1="15" x2="24" y2="15" stroke="#ffffff" stroke-width="1" opacity="0.6"/>
  <line x1="20" y1="18" x2="27" y2="18" stroke="#ffffff" stroke-width="1" opacity="0.8"/>
  <line x1="20" y1="21" x2="25" y2="21" stroke="#ffffff" stroke-width="1" opacity="0.6"/>
  
  <!-- Small heart accent (for "Family" theme) -->
  <path d="M7 10 Q7 8 9 8 Q11 8 11 10 Q11 8 13 8 Q15 8 15 10 Q15 12 11 16 Q7 12 7 10" fill="#ffffff" opacity="0.7" transform="scale(0.4) translate(10, 15)"/>
</svg>